<svg height="64px" width="64px" version="1.1" id="Capa_1" xmlns="http://www.w3.org/2000/svg" xmlns:xlink="http://www.w3.org/1999/xlink" viewBox="0 0 58 58" xml:space="preserve" fill="#c5c4c4" stroke="#c5c4c4" stroke-width="0.11599999999999999"><g id="SVGRepo_bgCarrier" stroke-width="0"></g><g id="SVGRepo_tracerCarrier" stroke-linecap="round" stroke-linejoin="round"></g><g id="SVGRepo_iconCarrier"> <g> <path style="fill:#43c782;" d="M25,9.586C11.193,9.586,0,19.621,0,32c0,4.562,1.524,8.803,4.135,12.343 C3.792,48.433,2.805,54.194,0,57c0,0,8.571-1.203,14.377-4.709c3.225,1.359,6.824,2.123,10.623,2.123c13.807,0,25-10.035,25-22.414 S38.807,9.586,25,9.586z"></path> <path style="fill:#8ac0f0;" d="M58,23.414C58,11.035,46.807,1,33,1c-9.97,0-18.575,5.234-22.589,12.804 C14.518,11.153,19.553,9.586,25,9.586c13.807,0,25,10.035,25,22.414c0,4.735-1.642,9.124-4.437,12.743 C51.162,47.448,58,48.414,58,48.414c-2.805-2.805-3.792-8.566-4.135-12.657C56.476,32.217,58,27.976,58,23.414z"></path> <circle style="fill:#FFFFFF;" cx="12" cy="32" r="3"></circle> <circle style="fill:#FFFFFF;" cx="25" cy="32" r="3"></circle> <circle style="fill:#FFFFFF;" cx="38" cy="32" r="3"></circle> </g> </g></svg>